<svg width="500px" height="65px" viewBox="0 0 500 65" version="1.1" xmlns="http://www.w3.org/2000/svg" xmlns:xlink="http://www.w3.org/1999/xlink">
    <g id="Page-1" stroke="none" stroke-width="1" fill="none" fill-rule="evenodd">
        <g transform="translate(-470.000000, -153.000000)" fill="#FFFFFF">
            <g transform="translate(470.000000, 153.000000)">
                <g>
                    <path d="M63.1052,36.7661 L63.1052,61.9431 C63.1052,62.9331 62.3022,63.7351 61.3122,63.7351 L59.1922,63.7351 C58.2022,63.7351 57.3992,62.9331 57.3992,61.9431 L57.3992,36.7661 C57.3992,29.0731 52.9922,25.0101 46.8542,25.0101 C40.1982,25.0101 34.8392,29.0731 34.8392,39.7911 L34.8392,61.9431 C34.8392,62.9331 34.0372,63.7351 33.0462,63.7351 L30.9262,63.7351 C29.9362,63.7351 29.1342,62.9331 29.1342,61.9431 L29.1342,36.7661 C29.1342,29.0731 25.1582,25.0101 19.0212,25.0101 C12.7972,25.0101 6.5742,29.0731 6.5742,39.7911 L6.5742,61.9431 C6.5742,62.9331 5.7712,63.7351 4.7812,63.7351 L2.6612,63.7351 C1.6702,63.7351 0.8692,62.9331 0.8692,61.9431 L0.8692,24.5471 C0.8692,22.3201 2.6732,20.5161 4.8992,20.5161 C5.8242,20.5161 6.5742,21.2661 6.5742,22.1901 L6.5742,24.9161 C6.5742,25.4981 7.3042,25.7431 7.6652,25.2861 C10.9192,21.1441 15.1512,19.4781 19.7982,19.4781 C25.4652,19.4781 29.9182,21.9801 32.4492,26.4151 C32.6822,26.8241 33.2382,26.8471 33.5022,26.4581 C36.7362,21.7081 41.7232,19.4781 46.9412,19.4781 C56.4492,19.4781 63.1052,25.9611 63.1052,36.7661" id="Fill-548"></path>
                    <path d="M77.0232,20.5156 C78.5992,20.5156 79.8772,21.7926 79.8772,23.3686 L79.8772,60.8826 C79.8772,62.4576 78.5992,63.7346 77.0232,63.7346 C75.4482,63.7346 74.1702,62.4576 74.1702,60.8826 L74.1702,23.3686 C74.1702,21.7926 75.4482,20.5156 77.0232,20.5156 M72.8752,7.2036 C72.8752,4.9566 74.6892,3.0556 77.0232,3.0556 C79.3582,3.0556 81.1722,4.9566 81.1722,7.2036 C81.1722,9.4516 79.3582,11.3526 77.0232,11.3526 C74.6892,11.3526 72.8752,9.4516 72.8752,7.2036" id="Fill-550"></path>
                    <path d="M89.3855,42.125 C89.3855,29.333 99.0665,19.478 112.1185,19.478 C119.5615,19.478 126.0235,22.878 129.6275,28.256 C130.5045,29.565 130.1035,31.345 128.7375,32.129 C127.5325,32.82 125.9745,32.521 125.1795,31.382 C122.6415,27.751 118.3255,25.364 113.2745,25.046 C103.3615,24.424 94.8105,32.732 95.0985,42.661 C95.3685,51.999 102.7025,59.241 112.1185,59.241 C117.7495,59.241 122.4275,56.7 125.3915,52.817 C126.2335,51.714 127.7245,51.35 128.9235,52.047 L129.1055,52.153 C130.4855,52.956 130.8535,54.777 129.9135,56.068 C126.0105,61.435 119.4895,64.772 112.1185,64.772 C99.0665,64.772 89.3855,54.918 89.3855,42.125" id="Fill-552"></path>
                    <path d="M159.0554,22.7354 L159.0554,22.8034 C159.0554,24.1644 158.0554,25.3294 156.7064,25.5034 C150.6904,26.2764 145.3984,30.2084 145.3984,39.7054 L145.3984,60.8824 C145.3984,62.4584 144.1204,63.7354 142.5454,63.7354 C140.9704,63.7354 139.6934,62.4584 139.6934,60.8824 L139.6934,22.2854 C139.6934,21.3084 140.4864,20.5154 141.4634,20.5154 L143.6284,20.5154 C144.6064,20.5154 145.3984,21.3084 145.3984,22.2854 C145.3984,23.8414 147.2584,24.6324 148.3834,23.5584 C150.5374,21.5004 153.1484,20.4474 155.9684,20.0354 C157.5984,19.7974 159.0554,21.0894 159.0554,22.7354" id="Fill-554"></path>
                    <path d="M201.4089,42.457 C201.5829,32.699 194.0789,25.001 184.3659,25.01 C175.1969,25.019 167.5199,32.625 167.3569,41.793 C167.1829,51.551 174.6859,59.249 184.3989,59.24 C193.5689,59.232 201.2459,51.625 201.4089,42.457 M161.6489,42.125 C161.6489,29.332 171.7629,19.478 184.3829,19.478 C197.0029,19.478 207.1159,29.332 207.1159,42.125 C207.1159,54.918 197.0029,64.772 184.3829,64.772 C171.7629,64.772 161.6489,54.918 161.6489,42.125" id="Fill-556"></path>
                    <path d="M214.033,42.125 C214.033,29.333 223.714,19.478 236.766,19.478 C244.193,19.478 250.643,22.864 254.253,28.223 C255.144,29.548 254.735,31.354 253.349,32.149 C252.166,32.829 250.63,32.537 249.85,31.416 C247.316,27.766 242.989,25.365 237.922,25.046 C228.009,24.424 219.458,32.732 219.746,42.662 C220.016,51.999 227.351,59.241 236.766,59.241 C242.397,59.241 247.075,56.7 250.039,52.817 C250.881,51.714 252.372,51.35 253.571,52.047 L253.753,52.153 C255.133,52.956 255.501,54.777 254.561,56.068 C250.657,61.435 244.137,64.772 236.766,64.772 C223.714,64.772 214.033,54.918 214.033,42.125" id="Fill-558"></path>
                    <path d="M267.1931,0.6343 C268.7681,0.6343 270.0461,1.9113 270.0461,3.4873 L270.0461,60.8823 C270.0461,62.4583 268.7681,63.7353 267.1931,63.7353 C265.6181,63.7353 264.3401,62.4583 264.3401,60.8823 L264.3401,3.4873 C264.3401,1.9113 265.6181,0.6343 267.1931,0.6343" id="Fill-560"></path>
                    <path d="M285.0007,20.5156 C286.5757,20.5156 287.8537,21.7926 287.8537,23.3686 L287.8537,60.8826 C287.8537,62.4576 286.5757,63.7346 285.0007,63.7346 C283.4247,63.7346 282.1477,62.4576 282.1477,60.8826 L282.1477,23.3686 C282.1477,21.7926 283.4247,20.5156 285.0007,20.5156 M280.8517,7.2036 C280.8517,4.9566 282.6667,3.0556 285.0007,3.0556 C287.3347,3.0556 289.1487,4.9566 289.1487,7.2036 C289.1487,9.4516 287.3347,11.3526 285.0007,11.3526 C282.6667,11.3526 280.8517,9.4516 280.8517,7.2036" id="Fill-562"></path>
                    <path d="M362.1902,36.7661 L362.1902,60.8821 C362.1902,62.4581 360.9132,63.7351 359.3372,63.7351 C357.7622,63.7351 356.4852,62.4581 356.4852,60.8821 L356.4852,36.7661 C356.4852,29.0731 352.0772,25.0101 345.9402,25.0101 C339.2842,25.0101 333.9242,29.0731 333.9242,39.7911 L333.9242,60.8821 C333.9242,62.4581 332.6472,63.7351 331.0722,63.7351 C329.4972,63.7351 328.2192,62.4581 328.2192,60.8821 L328.2192,36.7661 C328.2192,29.0731 324.2442,25.0101 318.1062,25.0101 C311.8822,25.0101 305.6592,29.0731 305.6592,39.7911 L305.6592,60.8821 C305.6592,62.4581 304.3812,63.7351 302.8062,63.7351 C301.2312,63.7351 299.9542,62.4581 299.9542,60.8821 L299.9542,22.0881 C299.9542,21.2201 300.6582,20.5161 301.5262,20.5161 L303.7482,20.5161 C304.8032,20.5161 305.6592,21.3711 305.6592,22.4271 C305.6592,23.8061 307.3122,24.5161 308.3052,23.5601 C311.3052,20.6751 314.9452,19.4781 318.8842,19.4781 C324.0712,19.4781 328.2412,21.5741 330.8512,25.3301 C331.4572,26.2021 332.6852,26.2581 333.3472,25.4291 C336.5732,21.3851 341.2022,19.4781 346.0262,19.4781 C355.5352,19.4781 362.1902,25.9611 362.1902,36.7661" id="Fill-564"></path>
                    <path d="M410.4226,42.4556 C410.5966,32.6976 403.0926,25.0006 393.3796,25.0106 C384.2106,25.0196 376.5336,32.6266 376.3716,41.7946 C376.1986,51.5526 383.7006,59.2496 393.4146,59.2406 C402.5836,59.2316 410.2606,51.6236 410.4226,42.4556 M416.1306,23.3686 L416.1306,60.8826 C416.1306,62.4576 414.8536,63.7346 413.2776,63.7346 C411.7026,63.7346 410.4256,62.4576 410.4256,60.8826 L410.4256,55.2636 C406.7956,61.0556 400.6576,64.7726 392.9646,64.7726 C380.7766,64.7726 370.6636,54.9186 370.6636,42.1246 C370.6636,29.3326 380.7766,19.4776 392.9646,19.4776 C400.6576,19.4776 406.7956,23.1956 410.4256,28.9866 L410.4256,23.3686 C410.4256,21.7926 411.7026,20.5156 413.2776,20.5156 C414.8536,20.5156 416.1306,21.7926 416.1306,23.3686" id="Fill-566"></path>
                    <path d="M441.2908,26.0479 C439.8548,26.0479 438.6918,27.2109 438.6918,28.6459 L438.6918,52.2389 C438.6918,58.8279 441.8838,59.1009 448.4468,58.8379 C449.9168,58.7779 451.1398,59.9629 451.1398,61.4339 C451.1398,62.7739 450.1088,63.8979 448.7748,64.0289 C438.5978,65.0289 432.9868,61.8889 432.9868,52.2389 L432.9868,28.6459 C432.9868,27.2109 431.8238,26.0479 430.3888,26.0479 L426.6778,26.0479 C425.1498,26.0479 423.9118,24.8099 423.9118,23.2819 C423.9118,21.7549 425.1498,20.5159 426.6778,20.5159 L430.3888,20.5159 C431.8238,20.5159 432.9868,19.3529 432.9868,17.9179 L432.9868,12.0699 C432.9868,10.9249 433.7358,9.9159 434.8318,9.5839 L435.3408,9.4289 C437.0098,8.9239 438.6918,10.1729 438.6918,11.9159 L438.6918,17.9179 C438.6918,19.3529 439.8548,20.5159 441.2908,20.5159 L448.5418,20.5159 C449.9768,20.5159 451.1398,21.6789 451.1398,23.1139 L451.1398,23.4499 C451.1398,24.8849 449.9768,26.0479 448.5418,26.0479 L441.2908,26.0479 Z" id="Fill-568"></path>
                    <path d="M464.5251,39.4458 L490.4451,39.4458 C492.1551,39.4458 493.3821,37.7858 492.8871,36.1488 C490.6661,28.8008 484.5441,25.0098 478.0231,25.0098 C470.1801,25.0098 464.2731,29.4648 462.0871,36.1418 C461.5541,37.7718 462.8101,39.4458 464.5251,39.4458 M499.4611,42.2988 L499.4601,42.3238 C499.4591,43.7898 498.2701,44.9778 496.8041,44.9778 L461.3401,44.9778 C462.5511,53.7948 469.3791,59.2408 478.5431,59.2408 C484.2561,59.2408 488.5181,57.0008 491.1251,53.8388 C492.0041,52.7718 493.5381,52.5248 494.7311,53.2248 C496.2701,54.1278 496.6301,56.2198 495.4531,57.5598 C491.6091,61.9298 485.7581,64.7728 478.4561,64.7728 C464.7981,64.7728 455.4621,55.1768 455.4621,42.1248 C455.4621,29.4188 464.6261,19.4778 478.0231,19.4778 C491.2491,19.4778 499.4611,30.4558 499.4611,42.2988" id="Fill-570"></path>
                </g>
            </g>
        </g>
    </g>
</svg>